<mxfile host="app.diagrams.net" agent="Mozilla/5.0 (Macintosh; Intel Mac OS X 10_15_7) AppleWebKit/537.36 (KHTML, like Gecko) Chrome/136.0.0.0 Safari/537.36" version="26.2.9">
  <diagram name="Page-1" id="mnUSyVK088bCUGyQu8Yx">
    <mxGraphModel grid="1" page="1" gridSize="10" guides="1" tooltips="1" connect="1" arrows="1" fold="1" pageScale="1" pageWidth="850" pageHeight="1100" math="0" shadow="0">
      <root>
        <mxCell id="0" />
        <mxCell id="1" parent="0" />
        <mxCell id="7k7_pcAB5l6S5vulRKB9-1" value="" style="rounded=0;whiteSpace=wrap;html=1;" vertex="1" parent="1">
          <mxGeometry x="150" y="60" width="550" height="1015" as="geometry" />
        </mxCell>
        <mxCell id="7k7_pcAB5l6S5vulRKB9-45" value="INPUT DATA" style="ellipse;whiteSpace=wrap;html=1;" vertex="1" parent="1">
          <mxGeometry x="220" y="230" width="90" height="60" as="geometry" />
        </mxCell>
        <mxCell id="7k7_pcAB5l6S5vulRKB9-2" value="DOSEN&lt;div&gt;&lt;br&gt;&lt;/div&gt;" style="shape=umlActor;verticalLabelPosition=bottom;verticalAlign=top;html=1;outlineConnect=0;" vertex="1" parent="1">
          <mxGeometry x="710" y="130" width="30" height="60" as="geometry" />
        </mxCell>
        <mxCell id="7k7_pcAB5l6S5vulRKB9-3" value="STAFF&lt;div&gt;&lt;br&gt;&lt;/div&gt;" style="shape=umlActor;verticalLabelPosition=bottom;verticalAlign=top;html=1;outlineConnect=0;" vertex="1" parent="1">
          <mxGeometry x="100" y="140" width="30" height="60" as="geometry" />
        </mxCell>
        <mxCell id="7k7_pcAB5l6S5vulRKB9-4" value="&lt;div&gt;MAHASIGMA&lt;/div&gt;" style="shape=umlActor;verticalLabelPosition=bottom;verticalAlign=top;html=1;outlineConnect=0;" vertex="1" parent="1">
          <mxGeometry x="80" y="420" width="30" height="60" as="geometry" />
        </mxCell>
        <mxCell id="7k7_pcAB5l6S5vulRKB9-5" value="&lt;div&gt;KAPRODI&lt;/div&gt;" style="shape=umlActor;verticalLabelPosition=bottom;verticalAlign=top;html=1;outlineConnect=0;" vertex="1" parent="1">
          <mxGeometry x="710" y="420" width="30" height="60" as="geometry" />
        </mxCell>
        <mxCell id="7k7_pcAB5l6S5vulRKB9-6" value="LOGIN" style="ellipse;whiteSpace=wrap;html=1;" vertex="1" parent="1">
          <mxGeometry x="365" y="70" width="120" height="80" as="geometry" />
        </mxCell>
        <mxCell id="7k7_pcAB5l6S5vulRKB9-7" value="DASHBOARD" style="ellipse;whiteSpace=wrap;html=1;" vertex="1" parent="1">
          <mxGeometry x="365" y="150" width="120" height="80" as="geometry" />
        </mxCell>
        <mxCell id="7k7_pcAB5l6S5vulRKB9-8" value="DATA MAHASIGMA" style="ellipse;whiteSpace=wrap;html=1;" vertex="1" parent="1">
          <mxGeometry x="365" y="230" width="120" height="80" as="geometry" />
        </mxCell>
        <mxCell id="7k7_pcAB5l6S5vulRKB9-9" value="ABSENSI" style="ellipse;whiteSpace=wrap;html=1;" vertex="1" parent="1">
          <mxGeometry x="365" y="390" width="120" height="80" as="geometry" />
        </mxCell>
        <mxCell id="7k7_pcAB5l6S5vulRKB9-10" value="NILAI UTS" style="ellipse;whiteSpace=wrap;html=1;" vertex="1" parent="1">
          <mxGeometry x="365" y="470" width="120" height="80" as="geometry" />
        </mxCell>
        <mxCell id="7k7_pcAB5l6S5vulRKB9-11" value="NILAI UAS" style="ellipse;whiteSpace=wrap;html=1;" vertex="1" parent="1">
          <mxGeometry x="365" y="550" width="120" height="80" as="geometry" />
        </mxCell>
        <mxCell id="7k7_pcAB5l6S5vulRKB9-12" value="IPK" style="ellipse;whiteSpace=wrap;html=1;" vertex="1" parent="1">
          <mxGeometry x="365" y="630" width="120" height="80" as="geometry" />
        </mxCell>
        <mxCell id="7k7_pcAB5l6S5vulRKB9-13" value="PEMBAYARAN" style="ellipse;whiteSpace=wrap;html=1;" vertex="1" parent="1">
          <mxGeometry x="365" y="710" width="120" height="80" as="geometry" />
        </mxCell>
        <mxCell id="7k7_pcAB5l6S5vulRKB9-14" value="VALIDASI" style="ellipse;whiteSpace=wrap;html=1;" vertex="1" parent="1">
          <mxGeometry x="365" y="790" width="120" height="80" as="geometry" />
        </mxCell>
        <mxCell id="7k7_pcAB5l6S5vulRKB9-15" value="CETAK LAPORAN" style="ellipse;whiteSpace=wrap;html=1;" vertex="1" parent="1">
          <mxGeometry x="365" y="870" width="120" height="80" as="geometry" />
        </mxCell>
        <mxCell id="7k7_pcAB5l6S5vulRKB9-16" value="LOGOUT" style="ellipse;whiteSpace=wrap;html=1;" vertex="1" parent="1">
          <mxGeometry x="365" y="950" width="120" height="80" as="geometry" />
        </mxCell>
        <mxCell id="7k7_pcAB5l6S5vulRKB9-19" value="" style="endArrow=none;html=1;rounded=0;" edge="1" parent="1" source="7k7_pcAB5l6S5vulRKB9-3" target="7k7_pcAB5l6S5vulRKB9-6">
          <mxGeometry width="50" height="50" relative="1" as="geometry">
            <mxPoint x="140" y="170" as="sourcePoint" />
            <mxPoint x="190" y="120" as="targetPoint" />
          </mxGeometry>
        </mxCell>
        <mxCell id="7k7_pcAB5l6S5vulRKB9-20" value="" style="endArrow=none;html=1;rounded=0;" edge="1" parent="1" source="7k7_pcAB5l6S5vulRKB9-3" target="7k7_pcAB5l6S5vulRKB9-7">
          <mxGeometry width="50" height="50" relative="1" as="geometry">
            <mxPoint x="140" y="170" as="sourcePoint" />
            <mxPoint x="378" y="132" as="targetPoint" />
          </mxGeometry>
        </mxCell>
        <mxCell id="7k7_pcAB5l6S5vulRKB9-21" value="" style="endArrow=none;html=1;rounded=0;" edge="1" parent="1" source="7k7_pcAB5l6S5vulRKB9-3" target="7k7_pcAB5l6S5vulRKB9-8">
          <mxGeometry width="50" height="50" relative="1" as="geometry">
            <mxPoint x="140" y="170" as="sourcePoint" />
            <mxPoint x="375" y="196" as="targetPoint" />
          </mxGeometry>
        </mxCell>
        <mxCell id="7k7_pcAB5l6S5vulRKB9-22" value="" style="endArrow=none;html=1;rounded=0;entryX=0.008;entryY=0.688;entryDx=0;entryDy=0;entryPerimeter=0;" edge="1" parent="1" source="7k7_pcAB5l6S5vulRKB9-4" target="7k7_pcAB5l6S5vulRKB9-6">
          <mxGeometry width="50" height="50" relative="1" as="geometry">
            <mxPoint x="100" y="450" as="sourcePoint" />
            <mxPoint x="150" y="400" as="targetPoint" />
          </mxGeometry>
        </mxCell>
        <mxCell id="7k7_pcAB5l6S5vulRKB9-25" value="" style="endArrow=none;html=1;rounded=0;exitX=1;exitY=0.5;exitDx=0;exitDy=0;" edge="1" parent="1" source="7k7_pcAB5l6S5vulRKB9-6" target="7k7_pcAB5l6S5vulRKB9-2">
          <mxGeometry width="50" height="50" relative="1" as="geometry">
            <mxPoint x="660" y="210" as="sourcePoint" />
            <mxPoint x="710" y="160" as="targetPoint" />
          </mxGeometry>
        </mxCell>
        <mxCell id="7k7_pcAB5l6S5vulRKB9-26" value="" style="endArrow=none;html=1;rounded=0;exitX=1;exitY=0.5;exitDx=0;exitDy=0;" edge="1" parent="1" source="7k7_pcAB5l6S5vulRKB9-7" target="7k7_pcAB5l6S5vulRKB9-2">
          <mxGeometry width="50" height="50" relative="1" as="geometry">
            <mxPoint x="495" y="120" as="sourcePoint" />
            <mxPoint x="710" y="160" as="targetPoint" />
          </mxGeometry>
        </mxCell>
        <mxCell id="7k7_pcAB5l6S5vulRKB9-27" value="" style="endArrow=none;html=1;rounded=0;" edge="1" parent="1" source="7k7_pcAB5l6S5vulRKB9-5">
          <mxGeometry width="50" height="50" relative="1" as="geometry">
            <mxPoint x="400" y="380" as="sourcePoint" />
            <mxPoint x="490" y="110" as="targetPoint" />
          </mxGeometry>
        </mxCell>
        <mxCell id="7k7_pcAB5l6S5vulRKB9-29" value="" style="endArrow=none;html=1;rounded=0;entryX=1;entryY=0.5;entryDx=0;entryDy=0;" edge="1" parent="1" target="7k7_pcAB5l6S5vulRKB9-7">
          <mxGeometry width="50" height="50" relative="1" as="geometry">
            <mxPoint x="710" y="430" as="sourcePoint" />
            <mxPoint x="500" y="120" as="targetPoint" />
          </mxGeometry>
        </mxCell>
        <mxCell id="7k7_pcAB5l6S5vulRKB9-30" value="" style="endArrow=none;html=1;rounded=0;entryX=1;entryY=0.5;entryDx=0;entryDy=0;" edge="1" parent="1" source="7k7_pcAB5l6S5vulRKB9-5" target="7k7_pcAB5l6S5vulRKB9-8">
          <mxGeometry width="50" height="50" relative="1" as="geometry">
            <mxPoint x="710" y="430" as="sourcePoint" />
            <mxPoint x="485" y="190" as="targetPoint" />
          </mxGeometry>
        </mxCell>
        <mxCell id="7k7_pcAB5l6S5vulRKB9-31" value="MATKUL" style="ellipse;whiteSpace=wrap;html=1;" vertex="1" parent="1">
          <mxGeometry x="365" y="310" width="120" height="80" as="geometry" />
        </mxCell>
        <mxCell id="7k7_pcAB5l6S5vulRKB9-32" value="" style="endArrow=none;html=1;rounded=0;entryX=0;entryY=0.5;entryDx=0;entryDy=0;" edge="1" parent="1" source="7k7_pcAB5l6S5vulRKB9-4" target="7k7_pcAB5l6S5vulRKB9-31">
          <mxGeometry width="50" height="50" relative="1" as="geometry">
            <mxPoint x="100" y="450" as="sourcePoint" />
            <mxPoint x="450" y="430" as="targetPoint" />
          </mxGeometry>
        </mxCell>
        <mxCell id="7k7_pcAB5l6S5vulRKB9-33" value="" style="endArrow=none;html=1;rounded=0;entryX=0;entryY=0.5;entryDx=0;entryDy=0;" edge="1" parent="1" source="7k7_pcAB5l6S5vulRKB9-4" target="7k7_pcAB5l6S5vulRKB9-9">
          <mxGeometry width="50" height="50" relative="1" as="geometry">
            <mxPoint x="100" y="450" as="sourcePoint" />
            <mxPoint x="375" y="360" as="targetPoint" />
          </mxGeometry>
        </mxCell>
        <mxCell id="7k7_pcAB5l6S5vulRKB9-35" value="" style="endArrow=none;html=1;rounded=0;" edge="1" parent="1" source="7k7_pcAB5l6S5vulRKB9-3">
          <mxGeometry width="50" height="50" relative="1" as="geometry">
            <mxPoint x="140" y="170" as="sourcePoint" />
            <mxPoint x="360" y="350" as="targetPoint" />
          </mxGeometry>
        </mxCell>
        <mxCell id="7k7_pcAB5l6S5vulRKB9-36" value="" style="endArrow=none;html=1;rounded=0;entryX=0.033;entryY=0.34;entryDx=0;entryDy=0;entryPerimeter=0;" edge="1" parent="1" source="7k7_pcAB5l6S5vulRKB9-4" target="7k7_pcAB5l6S5vulRKB9-15">
          <mxGeometry width="50" height="50" relative="1" as="geometry">
            <mxPoint x="100" y="450" as="sourcePoint" />
            <mxPoint x="375" y="440" as="targetPoint" />
          </mxGeometry>
        </mxCell>
        <mxCell id="7k7_pcAB5l6S5vulRKB9-37" value="" style="endArrow=none;html=1;rounded=0;entryX=0.033;entryY=0.364;entryDx=0;entryDy=0;entryPerimeter=0;" edge="1" parent="1" source="7k7_pcAB5l6S5vulRKB9-4" target="7k7_pcAB5l6S5vulRKB9-16">
          <mxGeometry width="50" height="50" relative="1" as="geometry">
            <mxPoint x="100" y="450" as="sourcePoint" />
            <mxPoint x="375" y="520" as="targetPoint" />
          </mxGeometry>
        </mxCell>
        <mxCell id="7k7_pcAB5l6S5vulRKB9-38" value="" style="endArrow=none;html=1;rounded=0;exitX=1;exitY=0.5;exitDx=0;exitDy=0;" edge="1" parent="1" source="7k7_pcAB5l6S5vulRKB9-8" target="7k7_pcAB5l6S5vulRKB9-2">
          <mxGeometry width="50" height="50" relative="1" as="geometry">
            <mxPoint x="495" y="200" as="sourcePoint" />
            <mxPoint x="720" y="170" as="targetPoint" />
          </mxGeometry>
        </mxCell>
        <mxCell id="7k7_pcAB5l6S5vulRKB9-39" value="" style="endArrow=none;html=1;rounded=0;exitX=1;exitY=0.5;exitDx=0;exitDy=0;" edge="1" parent="1" source="7k7_pcAB5l6S5vulRKB9-31" target="7k7_pcAB5l6S5vulRKB9-2">
          <mxGeometry width="50" height="50" relative="1" as="geometry">
            <mxPoint x="495" y="280" as="sourcePoint" />
            <mxPoint x="730" y="180" as="targetPoint" />
          </mxGeometry>
        </mxCell>
        <mxCell id="7k7_pcAB5l6S5vulRKB9-40" value="" style="endArrow=none;html=1;rounded=0;exitX=1;exitY=0.5;exitDx=0;exitDy=0;" edge="1" parent="1" source="7k7_pcAB5l6S5vulRKB9-9" target="7k7_pcAB5l6S5vulRKB9-2">
          <mxGeometry width="50" height="50" relative="1" as="geometry">
            <mxPoint x="495" y="360" as="sourcePoint" />
            <mxPoint x="740" y="190" as="targetPoint" />
          </mxGeometry>
        </mxCell>
        <mxCell id="7k7_pcAB5l6S5vulRKB9-41" value="" style="endArrow=none;html=1;rounded=0;exitX=1;exitY=0.5;exitDx=0;exitDy=0;" edge="1" parent="1" source="7k7_pcAB5l6S5vulRKB9-10" target="7k7_pcAB5l6S5vulRKB9-2">
          <mxGeometry width="50" height="50" relative="1" as="geometry">
            <mxPoint x="495" y="440" as="sourcePoint" />
            <mxPoint x="750" y="200" as="targetPoint" />
          </mxGeometry>
        </mxCell>
        <mxCell id="7k7_pcAB5l6S5vulRKB9-42" value="" style="endArrow=none;html=1;rounded=0;exitX=1;exitY=0.5;exitDx=0;exitDy=0;" edge="1" parent="1" source="7k7_pcAB5l6S5vulRKB9-11" target="7k7_pcAB5l6S5vulRKB9-2">
          <mxGeometry width="50" height="50" relative="1" as="geometry">
            <mxPoint x="495" y="520" as="sourcePoint" />
            <mxPoint x="760" y="210" as="targetPoint" />
          </mxGeometry>
        </mxCell>
        <mxCell id="7k7_pcAB5l6S5vulRKB9-46" value="INPUT MATKUL" style="ellipse;whiteSpace=wrap;html=1;" vertex="1" parent="1">
          <mxGeometry x="190" y="330" width="90" height="60" as="geometry" />
        </mxCell>
        <mxCell id="7k7_pcAB5l6S5vulRKB9-47" value="INPUT ABSENSI" style="ellipse;whiteSpace=wrap;html=1;" vertex="1" parent="1">
          <mxGeometry x="590" y="380" width="90" height="60" as="geometry" />
        </mxCell>
        <mxCell id="7k7_pcAB5l6S5vulRKB9-48" value="INPUT UTS" style="ellipse;whiteSpace=wrap;html=1;" vertex="1" parent="1">
          <mxGeometry x="590" y="490" width="90" height="60" as="geometry" />
        </mxCell>
        <mxCell id="7k7_pcAB5l6S5vulRKB9-49" value="INPUT UAS" style="ellipse;whiteSpace=wrap;html=1;" vertex="1" parent="1">
          <mxGeometry x="590" y="560" width="90" height="60" as="geometry" />
        </mxCell>
        <mxCell id="7k7_pcAB5l6S5vulRKB9-50" value="CEK VALID" style="ellipse;whiteSpace=wrap;html=1;" vertex="1" parent="1">
          <mxGeometry x="590" y="800" width="90" height="60" as="geometry" />
        </mxCell>
        <mxCell id="7k7_pcAB5l6S5vulRKB9-52" value="&amp;lt;&amp;lt;extend&amp;gt;&amp;gt;" style="html=1;verticalAlign=bottom;labelBackgroundColor=none;endArrow=open;endFill=0;dashed=1;rounded=0;exitX=1.01;exitY=0.528;exitDx=0;exitDy=0;exitPerimeter=0;entryX=0.005;entryY=0.462;entryDx=0;entryDy=0;entryPerimeter=0;" edge="1" parent="1" source="7k7_pcAB5l6S5vulRKB9-45" target="7k7_pcAB5l6S5vulRKB9-8">
          <mxGeometry width="160" relative="1" as="geometry">
            <mxPoint x="330" y="269.91" as="sourcePoint" />
            <mxPoint x="385" y="269.91" as="targetPoint" />
          </mxGeometry>
        </mxCell>
        <mxCell id="7k7_pcAB5l6S5vulRKB9-53" value="&amp;lt;&amp;lt;extend&amp;gt;&amp;gt;" style="html=1;verticalAlign=bottom;labelBackgroundColor=none;endArrow=open;endFill=0;dashed=1;rounded=0;exitX=0.982;exitY=0.403;exitDx=0;exitDy=0;exitPerimeter=0;entryX=0.021;entryY=0.613;entryDx=0;entryDy=0;entryPerimeter=0;" edge="1" parent="1" source="7k7_pcAB5l6S5vulRKB9-46" target="7k7_pcAB5l6S5vulRKB9-31">
          <mxGeometry width="160" relative="1" as="geometry">
            <mxPoint x="280" y="360" as="sourcePoint" />
            <mxPoint x="335" y="365" as="targetPoint" />
          </mxGeometry>
        </mxCell>
        <mxCell id="7k7_pcAB5l6S5vulRKB9-54" value="&amp;lt;&amp;lt;extend&amp;gt;&amp;gt;" style="html=1;verticalAlign=bottom;labelBackgroundColor=none;endArrow=open;endFill=0;dashed=1;rounded=0;exitX=0;exitY=0.5;exitDx=0;exitDy=0;entryX=0.972;entryY=0.442;entryDx=0;entryDy=0;entryPerimeter=0;" edge="1" parent="1" source="7k7_pcAB5l6S5vulRKB9-47" target="7k7_pcAB5l6S5vulRKB9-9">
          <mxGeometry width="160" relative="1" as="geometry">
            <mxPoint x="420" y="430" as="sourcePoint" />
            <mxPoint x="580" y="430" as="targetPoint" />
          </mxGeometry>
        </mxCell>
        <mxCell id="7k7_pcAB5l6S5vulRKB9-55" value="&amp;lt;&amp;lt;extend&amp;gt;&amp;gt;" style="html=1;verticalAlign=bottom;labelBackgroundColor=none;endArrow=open;endFill=0;dashed=1;rounded=0;exitX=0.027;exitY=0.382;exitDx=0;exitDy=0;entryX=0.981;entryY=0.442;entryDx=0;entryDy=0;entryPerimeter=0;exitPerimeter=0;" edge="1" parent="1" source="7k7_pcAB5l6S5vulRKB9-48" target="7k7_pcAB5l6S5vulRKB9-10">
          <mxGeometry width="160" relative="1" as="geometry">
            <mxPoint x="600" y="420" as="sourcePoint" />
            <mxPoint x="492" y="435" as="targetPoint" />
          </mxGeometry>
        </mxCell>
        <mxCell id="7k7_pcAB5l6S5vulRKB9-57" value="&amp;lt;&amp;lt;extend&amp;gt;&amp;gt;" style="html=1;verticalAlign=bottom;labelBackgroundColor=none;endArrow=open;endFill=0;dashed=1;rounded=0;exitX=0.015;exitY=0.396;exitDx=0;exitDy=0;entryX=0.994;entryY=0.435;entryDx=0;entryDy=0;entryPerimeter=0;exitPerimeter=0;" edge="1" parent="1" source="7k7_pcAB5l6S5vulRKB9-49" target="7k7_pcAB5l6S5vulRKB9-11">
          <mxGeometry width="160" relative="1" as="geometry">
            <mxPoint x="602" y="523" as="sourcePoint" />
            <mxPoint x="493" y="515" as="targetPoint" />
          </mxGeometry>
        </mxCell>
        <mxCell id="7k7_pcAB5l6S5vulRKB9-58" value="&amp;lt;&amp;lt;extend&amp;gt;&amp;gt;" style="html=1;verticalAlign=bottom;labelBackgroundColor=none;endArrow=open;endFill=0;dashed=1;rounded=0;entryX=0.972;entryY=0.453;entryDx=0;entryDy=0;entryPerimeter=0;exitX=0;exitY=0.5;exitDx=0;exitDy=0;" edge="1" parent="1" source="7k7_pcAB5l6S5vulRKB9-50" target="7k7_pcAB5l6S5vulRKB9-14">
          <mxGeometry width="160" relative="1" as="geometry">
            <mxPoint x="601" y="594" as="sourcePoint" />
            <mxPoint x="494" y="595" as="targetPoint" />
          </mxGeometry>
        </mxCell>
        <mxCell id="7k7_pcAB5l6S5vulRKB9-62" value="" style="endArrow=none;html=1;rounded=0;entryX=0.023;entryY=0.366;entryDx=0;entryDy=0;entryPerimeter=0;" edge="1" parent="1" source="7k7_pcAB5l6S5vulRKB9-4" target="7k7_pcAB5l6S5vulRKB9-12">
          <mxGeometry width="50" height="50" relative="1" as="geometry">
            <mxPoint x="100" y="450" as="sourcePoint" />
            <mxPoint x="379" y="907" as="targetPoint" />
          </mxGeometry>
        </mxCell>
        <mxCell id="7k7_pcAB5l6S5vulRKB9-63" value="" style="endArrow=none;html=1;rounded=0;entryX=-0.002;entryY=0.408;entryDx=0;entryDy=0;entryPerimeter=0;" edge="1" parent="1" source="7k7_pcAB5l6S5vulRKB9-4" target="7k7_pcAB5l6S5vulRKB9-13">
          <mxGeometry width="50" height="50" relative="1" as="geometry">
            <mxPoint x="100" y="450" as="sourcePoint" />
            <mxPoint x="378" y="669" as="targetPoint" />
          </mxGeometry>
        </mxCell>
        <mxCell id="7k7_pcAB5l6S5vulRKB9-64" value="" style="endArrow=none;html=1;rounded=0;exitX=0.976;exitY=0.367;exitDx=0;exitDy=0;exitPerimeter=0;" edge="1" parent="1" source="7k7_pcAB5l6S5vulRKB9-16" target="7k7_pcAB5l6S5vulRKB9-2">
          <mxGeometry width="50" height="50" relative="1" as="geometry">
            <mxPoint x="495" y="600" as="sourcePoint" />
            <mxPoint x="720" y="197" as="targetPoint" />
          </mxGeometry>
        </mxCell>
        <mxCell id="7k7_pcAB5l6S5vulRKB9-65" value="" style="endArrow=none;html=1;rounded=0;entryX=0.013;entryY=0.32;entryDx=0;entryDy=0;entryPerimeter=0;" edge="1" parent="1" source="7k7_pcAB5l6S5vulRKB9-3" target="7k7_pcAB5l6S5vulRKB9-12">
          <mxGeometry width="50" height="50" relative="1" as="geometry">
            <mxPoint x="150" y="180" as="sourcePoint" />
            <mxPoint x="370" y="360" as="targetPoint" />
          </mxGeometry>
        </mxCell>
        <mxCell id="7k7_pcAB5l6S5vulRKB9-66" value="" style="endArrow=none;html=1;rounded=0;entryX=0.042;entryY=0.375;entryDx=0;entryDy=0;entryPerimeter=0;" edge="1" parent="1" source="7k7_pcAB5l6S5vulRKB9-3" target="7k7_pcAB5l6S5vulRKB9-14">
          <mxGeometry width="50" height="50" relative="1" as="geometry">
            <mxPoint x="160" y="190" as="sourcePoint" />
            <mxPoint x="377" y="666" as="targetPoint" />
          </mxGeometry>
        </mxCell>
        <mxCell id="7k7_pcAB5l6S5vulRKB9-67" value="" style="endArrow=none;html=1;rounded=0;entryX=0.019;entryY=0.434;entryDx=0;entryDy=0;entryPerimeter=0;" edge="1" parent="1" source="7k7_pcAB5l6S5vulRKB9-3" target="7k7_pcAB5l6S5vulRKB9-16">
          <mxGeometry width="50" height="50" relative="1" as="geometry">
            <mxPoint x="170" y="200" as="sourcePoint" />
            <mxPoint x="380" y="830" as="targetPoint" />
          </mxGeometry>
        </mxCell>
        <mxCell id="7k7_pcAB5l6S5vulRKB9-68" value="" style="endArrow=none;html=1;rounded=0;entryX=0.011;entryY=0.391;entryDx=0;entryDy=0;entryPerimeter=0;" edge="1" parent="1" source="7k7_pcAB5l6S5vulRKB9-4" target="7k7_pcAB5l6S5vulRKB9-11">
          <mxGeometry width="50" height="50" relative="1" as="geometry">
            <mxPoint x="110" y="460" as="sourcePoint" />
            <mxPoint x="378" y="669" as="targetPoint" />
          </mxGeometry>
        </mxCell>
        <mxCell id="7k7_pcAB5l6S5vulRKB9-69" value="" style="endArrow=none;html=1;rounded=0;entryX=0.017;entryY=0.437;entryDx=0;entryDy=0;entryPerimeter=0;" edge="1" parent="1" source="7k7_pcAB5l6S5vulRKB9-4" target="7k7_pcAB5l6S5vulRKB9-10">
          <mxGeometry width="50" height="50" relative="1" as="geometry">
            <mxPoint x="120" y="470" as="sourcePoint" />
            <mxPoint x="376" y="591" as="targetPoint" />
          </mxGeometry>
        </mxCell>
        <mxCell id="7k7_pcAB5l6S5vulRKB9-70" value="" style="endArrow=none;html=1;rounded=0;entryX=0.99;entryY=0.44;entryDx=0;entryDy=0;entryPerimeter=0;" edge="1" parent="1" source="7k7_pcAB5l6S5vulRKB9-5" target="7k7_pcAB5l6S5vulRKB9-13">
          <mxGeometry width="50" height="50" relative="1" as="geometry">
            <mxPoint x="720" y="440" as="sourcePoint" />
            <mxPoint x="495" y="280" as="targetPoint" />
          </mxGeometry>
        </mxCell>
        <mxCell id="7k7_pcAB5l6S5vulRKB9-71" value="" style="endArrow=none;html=1;rounded=0;entryX=0.99;entryY=0.406;entryDx=0;entryDy=0;entryPerimeter=0;" edge="1" parent="1" source="7k7_pcAB5l6S5vulRKB9-5" target="7k7_pcAB5l6S5vulRKB9-14">
          <mxGeometry width="50" height="50" relative="1" as="geometry">
            <mxPoint x="730" y="450" as="sourcePoint" />
            <mxPoint x="494" y="755" as="targetPoint" />
          </mxGeometry>
        </mxCell>
        <mxCell id="7k7_pcAB5l6S5vulRKB9-72" value="" style="endArrow=none;html=1;rounded=0;entryX=0.99;entryY=0.382;entryDx=0;entryDy=0;entryPerimeter=0;" edge="1" parent="1" source="7k7_pcAB5l6S5vulRKB9-5" target="7k7_pcAB5l6S5vulRKB9-16">
          <mxGeometry width="50" height="50" relative="1" as="geometry">
            <mxPoint x="740" y="460" as="sourcePoint" />
            <mxPoint x="494" y="832" as="targetPoint" />
          </mxGeometry>
        </mxCell>
      </root>
    </mxGraphModel>
  </diagram>
</mxfile>
